<mxfile host="app.diagrams.net" modified="2023-08-21T17:47:21.295Z" agent="Mozilla/5.0 (Macintosh; Intel Mac OS X 10.15; rv:109.0) Gecko/20100101 Firefox/115.0" version="21.6.8" etag="dE079oS13f6x5JRaAga9" type="github">
  <diagram name="Page-1" id="OFLfo22lFaXpFqg-Ar_y">
    <mxGraphModel>
      <root>
        <mxCell id="0" />
        <mxCell id="1" parent="0" />
      </root>
    </mxGraphModel>
  </diagram>
</mxfile>
